<svg width="19" height="24" viewBox="0 0 19 24" fill="none" xmlns="http://www.w3.org/2000/svg">
<path d="M9.85892 5.64282C9.20965 5.64282 8.57497 5.83535 8.03512 6.19606C7.49528 6.55678 7.07452 7.06947 6.82606 7.66932C6.57759 8.26916 6.51258 8.92921 6.63925 9.566C6.76592 10.2028 7.07857 10.7877 7.53767 11.2468C7.99677 11.7059 8.5817 12.0186 9.21849 12.1452C9.85528 12.2719 10.5153 12.2069 11.1152 11.9584C11.715 11.71 12.2277 11.2892 12.5884 10.7494C12.9491 10.2095 13.1417 9.57483 13.1417 8.92557C13.1407 8.05523 12.7945 7.22083 12.1791 6.60541C11.5637 5.98999 10.7293 5.64381 9.85892 5.64282ZM9.85892 10.5669C9.53429 10.5669 9.21694 10.4707 8.94702 10.2903C8.6771 10.11 8.46672 9.85362 8.34249 9.5537C8.21826 9.25377 8.18575 8.92375 8.24908 8.60535C8.31242 8.28696 8.46874 7.99449 8.69829 7.76494C8.92784 7.53539 9.22031 7.37907 9.5387 7.31573C9.8571 7.2524 10.1871 7.28491 10.487 7.40914C10.787 7.53337 11.0433 7.74375 11.2237 8.01367C11.404 8.28359 11.5003 8.60094 11.5003 8.92557C11.4998 9.36073 11.3267 9.77793 11.019 10.0856C10.7113 10.3933 10.2941 10.5664 9.85892 10.5669Z" fill="#223463"/>
<path d="M16.1672 2.6121C14.6076 1.05282 12.5256 0.126539 10.3231 0.0120392C8.12064 -0.10246 5.95383 0.602935 4.24087 1.99208C2.52791 3.38123 1.39024 5.35565 1.04742 7.53429C0.704607 9.71292 1.18095 11.9413 2.38452 13.7894L8.58619 23.31C8.7242 23.5219 8.9129 23.6959 9.13519 23.8164C9.35747 23.9369 9.60631 24 9.85915 24C10.112 24 10.3608 23.9369 10.5831 23.8164C10.8054 23.6959 10.9941 23.5219 11.1321 23.31L17.334 13.7894C18.4508 12.075 18.9443 10.0289 18.7319 7.99393C18.5195 5.95896 17.614 4.05886 16.1672 2.6121ZM15.9587 12.8935L9.85918 22.257L3.75958 12.8935C1.89252 10.0273 2.29296 6.19157 4.71173 3.7727C5.38769 3.09672 6.19019 2.5605 7.07339 2.19466C7.95659 1.82881 8.9032 1.64052 9.85918 1.64052C10.8152 1.64052 11.7618 1.82881 12.645 2.19466C13.5282 2.5605 14.3307 3.09672 15.0066 3.7727C17.4254 6.19157 17.8258 10.0273 15.9587 12.8935Z" fill="#223463"/>
</svg>
