<svg width="24" height="24" viewBox="0 0 24 24" fill="none" xmlns="http://www.w3.org/2000/svg">
<path d="M12 23.5C9.72552 23.5 7.50211 22.8255 5.61095 21.5619C3.71978 20.2983 2.2458 18.5022 1.37539 16.4009C0.504983 14.2995 0.277245 11.9872 0.720975 9.75647C1.1647 7.52569 2.25997 5.47658 3.86828 3.86828C5.47658 2.25997 7.52569 1.1647 9.75647 0.720975C11.9872 0.277245 14.2995 0.504983 16.4009 1.37539C18.5022 2.2458 20.2983 3.71978 21.5619 5.61095C22.8255 7.50211 23.5 9.72552 23.5 12C23.5 15.05 22.2884 17.9751 20.1317 20.1317C17.9751 22.2884 15.05 23.5 12 23.5ZM12 1.21429C9.86679 1.21429 7.78149 1.84686 6.00778 3.03201C4.23408 4.21716 2.85165 5.90166 2.0353 7.87249C1.21896 9.84332 1.00537 12.012 1.42154 14.1042C1.8377 16.1964 2.86494 18.1182 4.37335 19.6267C5.88176 21.1351 7.80359 22.1623 9.89582 22.5785C11.988 22.9946 14.1567 22.7811 16.1275 21.9647C18.0984 21.1484 19.7828 19.7659 20.968 17.9922C22.1531 16.2185 22.7857 14.1332 22.7857 12C22.7857 9.13946 21.6494 6.39607 19.6267 4.37335C17.6039 2.35064 14.8606 1.21429 12 1.21429Z" fill="#223463" stroke="#223463"/>
<path d="M11.6431 12.1443V4.78564H12.3574V11.6399V11.8467L12.5034 11.9931L16.4363 15.9339L15.9345 16.4357L11.6431 12.1443Z" fill="#223463" stroke="#223463"/>
</svg>
