<svg width="24" height="24" viewBox="0 0 24 24" fill="none" xmlns="http://www.w3.org/2000/svg">
<path d="M4.86677 0.940151L4.86666 0.94026L1.52828 4.28464L1.52812 4.2848C0.739459 5.07441 0.54609 6.21226 0.969016 7.08371L0.969634 7.08499C4.33007 14.0428 9.94145 19.662 16.8945 23.0322L16.8951 23.0325C17.765 23.455 18.901 23.262 19.6894 22.4728C19.6894 22.4728 19.6895 22.4727 19.6895 22.4727L23.059 19.0972L23.0594 19.0968C23.3382 18.818 23.2742 18.4659 23.1035 18.3192C23.1035 18.3192 23.1034 18.3192 23.1034 18.3192L18.3997 14.2814L18.3996 14.2814C18.2398 14.1442 17.9188 14.1194 17.6696 14.3692L17.6693 14.3695L16.0373 16.0039C15.841 16.2064 15.5843 16.3399 15.3057 16.3842C15.0236 16.4291 14.7347 16.3802 14.4831 16.2449C14.4767 16.2415 14.4703 16.2379 14.4639 16.2343C11.6736 14.6274 9.35899 12.3098 7.75581 9.51738L7.74562 9.49905C7.61034 9.24738 7.56136 8.95827 7.60618 8.67609L8.3469 8.79375L7.60618 8.67609C7.65045 8.39738 7.78382 8.14061 7.98616 7.94417L9.61221 6.31693C9.61238 6.31676 9.61255 6.31659 9.61271 6.31642C9.86359 6.06386 9.83768 5.74139 9.69816 5.58027L4.86677 0.940151ZM4.86677 0.940151C5.14341 0.662903 5.49227 0.72562 5.63858 0.894293C5.63861 0.89433 5.63865 0.894367 5.63868 0.894404L9.69812 5.58022L4.86677 0.940151Z" stroke="#223463" stroke-width="1.5" stroke-linecap="round" stroke-linejoin="round"/>
</svg>
