<svg width="16" height="16" viewBox="0 0 16 16" fill="none" xmlns="http://www.w3.org/2000/svg">
<path d="M6.81939 9.17553C7.67755 10.0645 8.7159 10.7508 9.86151 11.1863L11.4113 9.92696C11.4573 9.89464 11.5118 9.87734 11.5676 9.87734C11.6234 9.87734 11.6778 9.89464 11.7238 9.92696L14.6015 11.8202C14.7107 11.8873 14.8032 11.9794 14.8716 12.0892C14.94 12.1991 14.9825 12.3236 14.9956 12.4531C15.0088 12.5826 14.9923 12.7134 14.9474 12.8352C14.9025 12.9571 14.8305 13.0666 14.7371 13.1552L13.3887 14.5153C13.1956 14.7101 12.9583 14.8531 12.6979 14.9315C12.4375 15.0099 12.1622 15.0212 11.8964 14.9645C9.24577 14.4054 6.8026 13.0962 4.84613 11.1863C2.93309 9.25749 1.60927 6.80322 1.03527 4.12123C0.978562 3.85409 0.990397 3.57653 1.06962 3.31543C1.14885 3.05434 1.29278 2.81857 1.48747 2.63097L2.8852 1.25405C2.97169 1.16329 3.07718 1.09368 3.19375 1.05044C3.31032 1.00721 3.43496 0.99146 3.55833 1.00438C3.68171 1.0173 3.80062 1.05856 3.90617 1.12506C4.01172 1.19156 4.10117 1.28158 4.16782 1.38839L6.08353 4.28915C6.11657 4.3347 6.13441 4.38989 6.13441 4.44657C6.13441 4.50326 6.11657 4.55844 6.08353 4.60399L4.82147 6.15303C5.25952 7.29945 5.942 8.33192 6.81939 9.17553Z" fill="white"/>
</svg>
