<svg width="24" height="24" viewBox="0 0 24 24" fill="none" xmlns="http://www.w3.org/2000/svg">
<path d="M20.6771 5.81617L22.053 4.9H20.4H3.6H1.94702L3.32287 5.81617L11.7229 11.4097L12 11.5942L12.2771 11.4097L20.6771 5.81617ZM1.21429 18.6V19.1H1.71429H22.2857H22.7857V18.6V6.15075V5.21694L22.0085 5.73461L12.2114 12.2604L12.2109 12.2607C12.1507 12.3009 12.0771 12.3236 12 12.3236C11.9229 12.3236 11.8493 12.3009 11.7891 12.2607L11.7886 12.2604L1.99147 5.73461L1.21429 5.21694V6.15075V18.6ZM1.71429 4.25H22.2857C22.6138 4.25 22.9248 4.37562 23.1512 4.59352C23.3769 4.81079 23.5 5.1013 23.5 5.4V18.6C23.5 18.8987 23.3769 19.1892 23.1512 19.4065C22.9248 19.6244 22.6138 19.75 22.2857 19.75H1.71429C1.3862 19.75 1.07522 19.6244 0.848837 19.4065C0.623103 19.1892 0.5 18.8987 0.5 18.6V5.4C0.5 5.1013 0.623103 4.81079 0.848837 4.59352C1.07522 4.37562 1.3862 4.25 1.71429 4.25Z" fill="#223463" stroke="#223463"/>
</svg>
