<svg width="17" height="17" viewBox="0 0 17 17" fill="none" xmlns="http://www.w3.org/2000/svg">
<g clip-path="url(#clip0_2:2848)">
<path d="M3.178 12.8413C3.2818 12.9455 3.36133 13.0713 3.41094 13.2097C3.46055 13.3482 3.47901 13.4959 3.465 13.6423C3.39472 14.3198 3.26148 14.9894 3.067 15.6423C4.462 15.3193 5.314 14.9453 5.701 14.7493C5.9205 14.6381 6.17329 14.6117 6.411 14.6753C7.09243 14.8569 7.79477 14.9484 8.5 14.9473C12.496 14.9473 15.5 12.1403 15.5 8.94727C15.5 5.75527 12.496 2.94727 8.5 2.94727C4.504 2.94727 1.5 5.75527 1.5 8.94727C1.5 10.4153 2.117 11.7773 3.178 12.8413ZM2.685 16.7463C2.44807 16.7932 2.21037 16.8362 1.972 16.8753C1.772 16.9073 1.62 16.6993 1.699 16.5133C1.78779 16.3039 1.86918 16.0914 1.943 15.8763L1.946 15.8663C2.194 15.1463 2.396 14.3183 2.47 13.5473C1.243 12.3173 0.5 10.7073 0.5 8.94727C0.5 5.08127 4.082 1.94727 8.5 1.94727C12.918 1.94727 16.5 5.08127 16.5 8.94727C16.5 12.8133 12.918 15.9473 8.5 15.9473C7.70765 15.9483 6.91859 15.8455 6.153 15.6413C5.633 15.9043 4.514 16.3833 2.685 16.7463Z" fill="#223463"/>
<path d="M4.5 6.44727C4.5 6.31466 4.55268 6.18748 4.64645 6.09371C4.74021 5.99994 4.86739 5.94727 5 5.94727H12C12.1326 5.94727 12.2598 5.99994 12.3536 6.09371C12.4473 6.18748 12.5 6.31466 12.5 6.44727C12.5 6.57987 12.4473 6.70705 12.3536 6.80082C12.2598 6.89459 12.1326 6.94727 12 6.94727H5C4.86739 6.94727 4.74021 6.89459 4.64645 6.80082C4.55268 6.70705 4.5 6.57987 4.5 6.44727ZM4.5 8.94727C4.5 8.81466 4.55268 8.68748 4.64645 8.59371C4.74021 8.49994 4.86739 8.44727 5 8.44727H12C12.1326 8.44727 12.2598 8.49994 12.3536 8.59371C12.4473 8.68748 12.5 8.81466 12.5 8.94727C12.5 9.07987 12.4473 9.20705 12.3536 9.30082C12.2598 9.39459 12.1326 9.44727 12 9.44727H5C4.86739 9.44727 4.74021 9.39459 4.64645 9.30082C4.55268 9.20705 4.5 9.07987 4.5 8.94727ZM4.5 11.4473C4.5 11.3147 4.55268 11.1875 4.64645 11.0937C4.74021 10.9999 4.86739 10.9473 5 10.9473H9C9.13261 10.9473 9.25979 10.9999 9.35355 11.0937C9.44732 11.1875 9.5 11.3147 9.5 11.4473C9.5 11.5799 9.44732 11.7071 9.35355 11.8008C9.25979 11.8946 9.13261 11.9473 9 11.9473H5C4.86739 11.9473 4.74021 11.8946 4.64645 11.8008C4.55268 11.7071 4.5 11.5799 4.5 11.4473Z" fill="#223463"/>
</g>
<defs>
<clipPath id="clip0_2:2848">
<rect width="16" height="16" fill="white" transform="translate(0.5 0.947266)"/>
</clipPath>
</defs>
</svg>
