<svg width="128" height="76" viewBox="0 0 128 76" fill="none" xmlns="http://www.w3.org/2000/svg">
<path fill-rule="evenodd" clip-rule="evenodd" d="M63.1956 0.164731C62.2523 0.566836 50.551 6.78249 50.5118 6.90238C50.4789 7.00273 53.2788 7.02833 64.288 7.02833C72.2209 7.02833 78.1054 6.99044 78.1054 6.93926C78.1054 6.89029 75.1897 5.31875 71.6261 3.44686L65.1469 0.0434237L64.3964 0.00816033C63.8232 -0.0188415 63.5395 0.018135 63.1956 0.164731ZM50.2948 8.49821C49.897 8.83533 49.8709 9.33869 50.2326 9.70281L50.4781 9.95016H64.2463H78.0144L78.26 9.70281C78.5017 9.45949 78.5771 9.0458 78.4435 8.69528C78.2636 8.22315 78.7042 8.23736 64.2088 8.23736H50.6026L50.2948 8.49821ZM51.5741 11.3518C51.3867 11.5046 51.3378 11.642 51.3378 12.0156C51.3378 12.5746 51.6148 12.872 52.1354 12.872H52.4606L52.4219 14.5596C52.4006 15.4878 52.3403 17.0407 52.2878 18.0104C52.2354 18.9801 52.163 20.8164 52.127 22.0909C52.0463 24.951 51.9752 24.8112 53.5085 24.8112C54.4534 24.8112 54.5186 24.7975 54.7104 24.5593C54.9386 24.2761 54.9368 24.1088 54.6345 17.6074C54.5558 15.9173 54.4912 14.1603 54.4907 13.7032L54.4899 12.872H54.8401C55.3377 12.872 55.5906 12.5848 55.5906 12.0195C55.5906 11.6869 55.5337 11.5167 55.3716 11.3646C55.1693 11.1749 55.0249 11.1592 53.4814 11.1592C51.9851 11.1592 51.7856 11.1793 51.5741 11.3518ZM56.955 11.3681C56.744 11.5351 56.6913 11.6625 56.6913 12.0053C56.6913 12.5334 56.9968 12.872 57.4732 12.872C57.8654 12.872 57.8542 12.2885 57.5926 19.0884C57.4834 21.9256 57.4216 24.3188 57.4551 24.4068C57.5675 24.7016 58.0524 24.8616 58.833 24.8616C60.099 24.8616 60.3245 24.6311 60.2395 23.4243C60.1989 22.847 60.0188 17.9555 59.8751 13.5269L59.8555 12.9224L60.222 12.8912C60.9382 12.8305 61.2604 11.9219 60.7485 11.4065C60.5077 11.164 60.4709 11.1592 58.8607 11.1592C57.351 11.1592 57.1973 11.176 56.955 11.3681ZM62.2811 11.3518C62.0938 11.5046 62.0448 11.642 62.0448 12.0156C62.0448 12.5841 62.3219 12.872 62.8694 12.872H63.2214L63.1603 13.7536C63.1266 14.2385 63.0228 16.8248 62.9295 19.501L62.7598 24.3668L62.9771 24.5857C63.1485 24.7581 63.3432 24.813 63.8948 24.8445C64.8417 24.8983 65.2627 24.8063 65.4605 24.5025C65.6098 24.2731 65.6096 23.8964 65.4585 19.6963C65.3683 17.1898 65.2664 14.6289 65.2321 14.0055L65.1697 12.872H65.5335C66.0471 12.872 66.2976 12.5911 66.2976 12.0156C66.2976 11.6965 66.2383 11.5025 66.0975 11.3607C65.9132 11.1751 65.764 11.1592 64.2073 11.1592C62.6925 11.1592 62.4928 11.1791 62.2811 11.3518ZM67.644 11.4065C67.1138 11.9403 67.4548 12.872 68.1803 12.872H68.4991L68.496 13.6528C68.4942 14.0822 68.4085 16.6288 68.3054 19.3116C68.1765 22.6695 68.1497 24.2595 68.2196 24.4138C68.2753 24.5371 68.4307 24.6882 68.5648 24.7498C68.8803 24.8944 70.2192 24.8944 70.5347 24.7498C71.0275 24.5237 71.0243 24.6142 70.7568 18.4638C70.7279 17.7988 70.674 16.2687 70.6371 15.0634L70.5699 12.872H70.9179C71.6447 12.872 71.9862 11.9408 71.4555 11.4065C71.2145 11.1638 71.179 11.1592 69.5497 11.1592C67.9205 11.1592 67.885 11.1638 67.644 11.4065ZM73.002 11.3607C72.8558 11.5079 72.8019 11.6965 72.8019 12.0602C72.8019 12.6414 73.0251 12.872 73.5875 12.872H73.9283L73.8664 13.9551C73.8324 14.5507 73.73 17.1386 73.6388 19.7057L73.4731 24.3733L73.6907 24.5922C73.8726 24.7755 74.0473 24.8171 74.76 24.8469C75.7519 24.8885 76.176 24.7575 76.27 24.3808C76.3302 24.1391 76.07 15.7664 75.9412 13.804L75.8801 12.872H76.22C76.8852 12.872 77.2201 12.3705 77.001 11.7025C76.9392 11.5136 76.805 11.3142 76.703 11.2591C76.601 11.2042 75.7715 11.1592 74.8598 11.1592C73.3355 11.1592 73.186 11.1754 73.002 11.3607ZM51.7208 25.9393C51.2615 26.0293 50.807 26.7496 50.9586 27.1474C50.9999 27.2557 53.3914 27.2797 64.1502 27.2797C77.2443 27.2797 77.2916 27.279 77.3555 27.0763C77.4637 26.7329 77.1035 26.1377 76.7044 26.0007C76.4401 25.91 73.3603 25.8824 64.1462 25.8886C57.4318 25.8929 51.8403 25.9158 51.7208 25.9393ZM49.5223 28.3865C48.9777 28.6092 48.8223 29.3403 49.2319 29.7527L49.4775 30H63.9961H78.5147L78.7603 29.7527C79.0784 29.4325 79.08 28.9897 78.7645 28.6203L78.5229 28.3376L64.1299 28.3182C56.1463 28.3076 49.6413 28.338 49.5223 28.3865Z" fill="white"/>
<path d="M9.93692 61.904C9.93692 62.856 9.79692 63.668 9.51692 64.34C9.23692 64.9933 8.84492 65.5347 8.34092 65.964C7.85559 66.3747 7.28626 66.6827 6.63292 66.888C5.99826 67.0747 5.31692 67.168 4.58892 67.168C3.69292 67.168 2.88092 67 2.15292 66.664C1.44359 66.3093 0.85559 65.824 0.388923 65.208L2.20892 63.808C2.47026 64.1253 2.80626 64.396 3.21692 64.62C3.62759 64.844 4.06626 64.956 4.53292 64.956C5.39159 64.956 6.11026 64.7227 6.68892 64.256C7.28626 63.7893 7.58492 62.996 7.58492 61.876V47.512H9.93692V61.904ZM30.4119 47.512V61.344C30.4119 62.24 30.2719 63.052 29.9919 63.78C29.7119 64.4893 29.3199 65.096 28.8159 65.6C28.3119 66.104 27.7053 66.496 26.9959 66.776C26.3053 67.0373 25.5399 67.168 24.6999 67.168C23.8039 67.168 23.0013 67.028 22.2919 66.748C21.6013 66.4493 21.0039 66.048 20.4999 65.544C20.0146 65.0213 19.6413 64.4053 19.3799 63.696C19.1186 62.968 18.9879 62.184 18.9879 61.344V47.512H21.3119V61.428C21.3119 61.8947 21.3866 62.3427 21.5359 62.772C21.7039 63.1827 21.9279 63.556 22.2079 63.892C22.5066 64.2093 22.8613 64.4707 23.2719 64.676C23.7013 64.8627 24.1773 64.956 24.6999 64.956C25.6893 64.956 26.4919 64.648 27.1079 64.032C27.7426 63.3973 28.0599 62.5293 28.0599 61.428V47.512H30.4119ZM49.9715 61.68C49.9715 63.3787 49.4581 64.7227 48.4315 65.712C47.4235 66.7013 46.0048 67.196 44.1755 67.196C42.6635 67.196 41.4035 66.888 40.3955 66.272C39.3875 65.656 38.6408 64.816 38.1555 63.752L40.2275 62.548C40.6008 63.2013 41.1048 63.7613 41.7395 64.228C42.3741 64.6947 43.1955 64.928 44.2035 64.928C45.3981 64.928 46.2568 64.62 46.7795 64.004C47.3021 63.388 47.5635 62.6133 47.5635 61.68C47.5635 61.1573 47.4795 60.7187 47.3115 60.364C47.1621 59.9907 46.9381 59.6733 46.6395 59.412C46.3408 59.1507 45.9768 58.9267 45.5475 58.74C45.1181 58.5347 44.6421 58.348 44.1195 58.18C43.1488 57.8813 42.3181 57.5733 41.6275 57.256C40.9555 56.92 40.4048 56.5373 39.9755 56.108C39.5461 55.6787 39.2288 55.1933 39.0235 54.652C38.8368 54.092 38.7435 53.4387 38.7435 52.692C38.7435 51.908 38.8741 51.1893 39.1355 50.536C39.3968 49.8827 39.7701 49.3227 40.2555 48.856C40.7595 48.3707 41.3568 47.9973 42.0475 47.736C42.7381 47.4747 43.5128 47.344 44.3715 47.344C45.8088 47.344 46.9661 47.6053 47.8435 48.128C48.7208 48.632 49.3741 49.276 49.8035 50.06L47.8155 51.432C47.4421 50.7787 46.9755 50.312 46.4155 50.032C45.8555 49.7333 45.1368 49.584 44.2595 49.584C43.1768 49.584 42.3835 49.8827 41.8795 50.48C41.3755 51.0773 41.1235 51.8147 41.1235 52.692C41.1235 53.196 41.2355 53.6253 41.4595 53.98C41.6835 54.3347 41.9915 54.6427 42.3835 54.904C42.7755 55.1467 43.2328 55.3707 43.7555 55.576C44.2781 55.7627 44.8475 55.9493 45.4635 56.136C46.3035 56.3973 47.0128 56.696 47.5915 57.032C48.1701 57.368 48.6275 57.76 48.9635 58.208C49.3181 58.656 49.5701 59.1693 49.7195 59.748C49.8875 60.308 49.9715 60.952 49.9715 61.68ZM63.3145 49.64V67H60.9905V49.64H56.5385V47.512H67.7665V49.64H63.3145ZM75.2515 67V47.512H77.6035V67H75.2515ZM91.8778 49.64V67H89.5538V49.64H85.1018V47.512H96.3298V49.64H91.8778ZM103.815 67V47.512H106.167V67H103.815ZM124.921 67L123.689 62.576H117.473L116.269 67H113.889L119.545 47.512H121.645L127.329 67H124.921ZM121.729 55.436L120.637 51.124H120.525L119.433 55.408L118.005 60.476H123.157L121.729 55.436Z" fill="white"/>
<line y1="38.5" x2="128" y2="38.5" stroke="#57627D"/>
<line y1="75.5" x2="128" y2="75.5" stroke="#57627D"/>
</svg>
