<svg width="118" height="21" viewBox="0 0 118 21" fill="none" xmlns="http://www.w3.org/2000/svg">
<path d="M9.83692 14.904C9.83692 15.856 9.69692 16.668 9.41692 17.34C9.13692 17.9933 8.74492 18.5347 8.24092 18.964C7.75559 19.3747 7.18625 19.6827 6.53292 19.888C5.89825 20.0747 5.21692 20.168 4.48892 20.168C3.59292 20.168 2.78092 20 2.05292 19.664C1.34359 19.3093 0.755588 18.824 0.288921 18.208L2.10892 16.808C2.37025 17.1253 2.70625 17.396 3.11692 17.62C3.52759 17.844 3.96625 17.956 4.43292 17.956C5.29159 17.956 6.01025 17.7227 6.58892 17.256C7.18625 16.7893 7.48492 15.996 7.48492 14.876V0.511999H9.83692V14.904ZM28.9119 0.511999V14.344C28.9119 15.24 28.7719 16.052 28.4919 16.78C28.2119 17.4893 27.8199 18.096 27.3159 18.6C26.8119 19.104 26.2053 19.496 25.4959 19.776C24.8053 20.0373 24.0399 20.168 23.1999 20.168C22.3039 20.168 21.5013 20.028 20.7919 19.748C20.1013 19.4493 19.5039 19.048 18.9999 18.544C18.5146 18.0213 18.1413 17.4053 17.8799 16.696C17.6186 15.968 17.4879 15.184 17.4879 14.344V0.511999H19.8119V14.428C19.8119 14.8947 19.8866 15.3427 20.0359 15.772C20.2039 16.1827 20.4279 16.556 20.7079 16.892C21.0066 17.2093 21.3613 17.4707 21.7719 17.676C22.2013 17.8627 22.6773 17.956 23.1999 17.956C24.1893 17.956 24.9919 17.648 25.6079 17.032C26.2426 16.3973 26.5599 15.5293 26.5599 14.428V0.511999H28.9119ZM47.0715 14.68C47.0715 16.3787 46.5581 17.7227 45.5315 18.712C44.5235 19.7013 43.1048 20.196 41.2755 20.196C39.7635 20.196 38.5035 19.888 37.4955 19.272C36.4875 18.656 35.7408 17.816 35.2555 16.752L37.3275 15.548C37.7008 16.2013 38.2048 16.7613 38.8395 17.228C39.4741 17.6947 40.2955 17.928 41.3035 17.928C42.4981 17.928 43.3568 17.62 43.8795 17.004C44.4021 16.388 44.6635 15.6133 44.6635 14.68C44.6635 14.1573 44.5795 13.7187 44.4115 13.364C44.2621 12.9907 44.0381 12.6733 43.7395 12.412C43.4408 12.1507 43.0768 11.9267 42.6475 11.74C42.2181 11.5347 41.7421 11.348 41.2195 11.18C40.2488 10.8813 39.4181 10.5733 38.7275 10.256C38.0555 9.92 37.5048 9.53733 37.0755 9.108C36.6461 8.67867 36.3288 8.19333 36.1235 7.652C35.9368 7.092 35.8435 6.43867 35.8435 5.692C35.8435 4.908 35.9741 4.18933 36.2355 3.536C36.4968 2.88267 36.8701 2.32267 37.3555 1.856C37.8595 1.37067 38.4568 0.997333 39.1475 0.735999C39.8381 0.474666 40.6128 0.343999 41.4715 0.343999C42.9088 0.343999 44.0661 0.605333 44.9435 1.128C45.8208 1.632 46.4741 2.276 46.9035 3.06L44.9155 4.432C44.5421 3.77867 44.0755 3.312 43.5155 3.032C42.9555 2.73333 42.2368 2.584 41.3595 2.584C40.2768 2.584 39.4835 2.88267 38.9795 3.48C38.4755 4.07733 38.2235 4.81467 38.2235 5.692C38.2235 6.196 38.3355 6.62533 38.5595 6.98C38.7835 7.33467 39.0915 7.64267 39.4835 7.904C39.8755 8.14667 40.3328 8.37067 40.8555 8.576C41.3781 8.76267 41.9475 8.94933 42.5635 9.136C43.4035 9.39733 44.1128 9.696 44.6915 10.032C45.2701 10.368 45.7275 10.76 46.0635 11.208C46.4181 11.656 46.6701 12.1693 46.8195 12.748C46.9875 13.308 47.0715 13.952 47.0715 14.68ZM59.0145 2.64V20H56.6905V2.64H52.2385V0.511999H63.4665V2.64H59.0145ZM69.5515 20V0.511999H71.9035V20H69.5515ZM84.7778 2.64V20H82.4538V2.64H78.0018V0.511999H89.2298V2.64H84.7778ZM95.3148 20V0.511999H97.6668V20H95.3148ZM115.021 20L113.789 15.576H107.573L106.369 20H103.989L109.645 0.511999H111.745L117.429 20H115.021ZM111.829 8.436L110.737 4.124H110.625L109.533 8.408L108.105 13.476H113.257L111.829 8.436Z" fill="black"/>
</svg>
