<svg width="16" height="16" viewBox="0 0 16 16" fill="none" xmlns="http://www.w3.org/2000/svg">
<path d="M2.678 11.6236C2.7818 11.7348 2.86133 11.869 2.91094 12.0167C2.96055 12.1645 2.97901 12.322 2.965 12.4783C2.89472 13.2012 2.76148 13.9156 2.567 14.6122C3.962 14.2676 4.814 13.8685 5.201 13.6594C5.4205 13.5408 5.67329 13.5127 5.911 13.5804C6.59243 13.7743 7.29477 13.8718 8 13.8707C11.996 13.8707 15 10.8757 15 7.46881C15 4.06304 11.996 1.06697 8 1.06697C4.004 1.06697 1 4.06304 1 7.46881C1 9.03513 1.617 10.4883 2.678 11.6236ZM2.185 15.7901C1.94807 15.8403 1.71037 15.8861 1.472 15.9278C1.272 15.9619 1.12 15.74 1.199 15.5415C1.28779 15.3181 1.36918 15.0914 1.443 14.8619L1.446 14.8512C1.694 14.083 1.896 13.1995 1.97 12.3769C0.743 11.0645 0 9.34669 0 7.46881C0 3.34389 3.582 0 8 0C12.418 0 16 3.34389 16 7.46881C16 11.5937 12.418 14.9376 8 14.9376C7.20765 14.9388 6.41859 14.829 5.653 14.6111C5.133 14.8917 4.014 15.4028 2.185 15.7901Z" fill="white"/>
<path d="M4 4.80131C4 4.65982 4.05268 4.52413 4.14645 4.42408C4.24021 4.32403 4.36739 4.26782 4.5 4.26782H11.5C11.6326 4.26782 11.7598 4.32403 11.8536 4.42408C11.9473 4.52413 12 4.65982 12 4.80131C12 4.9428 11.9473 5.07849 11.8536 5.17854C11.7598 5.27859 11.6326 5.3348 11.5 5.3348H4.5C4.36739 5.3348 4.24021 5.27859 4.14645 5.17854C4.05268 5.07849 4 4.9428 4 4.80131ZM4 7.46874C4 7.32725 4.05268 7.19156 4.14645 7.09151C4.24021 6.99146 4.36739 6.93526 4.5 6.93526H11.5C11.6326 6.93526 11.7598 6.99146 11.8536 7.09151C11.9473 7.19156 12 7.32725 12 7.46874C12 7.61023 11.9473 7.74593 11.8536 7.84598C11.7598 7.94602 11.6326 8.00223 11.5 8.00223H4.5C4.36739 8.00223 4.24021 7.94602 4.14645 7.84598C4.05268 7.74593 4 7.61023 4 7.46874ZM4 10.1362C4 9.99469 4.05268 9.85899 4.14645 9.75894C4.24021 9.6589 4.36739 9.60269 4.5 9.60269H8.5C8.63261 9.60269 8.75979 9.6589 8.85355 9.75894C8.94732 9.85899 9 9.99469 9 10.1362C9 10.2777 8.94732 10.4134 8.85355 10.5134C8.75979 10.6135 8.63261 10.6697 8.5 10.6697H4.5C4.36739 10.6697 4.24021 10.6135 4.14645 10.5134C4.05268 10.4134 4 10.2777 4 10.1362Z" fill="white"/>
</svg>
