<svg width="14" height="15" viewBox="0 0 14 15" fill="none" xmlns="http://www.w3.org/2000/svg">
<path d="M5.81939 8.67553C6.67755 9.5645 7.7159 10.2508 8.86151 10.6863L10.4113 9.42696C10.4573 9.39464 10.5118 9.37734 10.5676 9.37734C10.6234 9.37734 10.6778 9.39464 10.7238 9.42696L13.6015 11.3202C13.7107 11.3873 13.8032 11.4794 13.8716 11.5892C13.94 11.6991 13.9825 11.8236 13.9956 11.9531C14.0088 12.0826 13.9923 12.2134 13.9474 12.3352C13.9025 12.4571 13.8305 12.5666 13.7371 12.6552L12.3887 14.0153C12.1956 14.2101 11.9583 14.3531 11.6979 14.4315C11.4375 14.5099 11.1622 14.5212 10.8964 14.4645C8.24577 13.9054 5.8026 12.5962 3.84613 10.6863C1.93309 8.75749 0.60927 6.30322 0.0352662 3.62123C-0.0214379 3.35409 -0.00960299 3.07653 0.069624 2.81543C0.148851 2.55434 0.292783 2.31857 0.487472 2.13097L1.8852 0.754053C1.97169 0.663289 2.07718 0.593682 2.19375 0.550445C2.31032 0.507207 2.43496 0.49146 2.55833 0.504382C2.68171 0.517303 2.80062 0.558559 2.90617 0.62506C3.01172 0.69156 3.10117 0.781583 3.16782 0.888387L5.08353 3.78915C5.11657 3.8347 5.13441 3.88989 5.13441 3.94657C5.13441 4.00326 5.11657 4.05844 5.08353 4.10399L3.82147 5.65303C4.25952 6.79945 4.942 7.83192 5.81939 8.67553Z" fill="white"/>
</svg>
