<svg width="50" height="36" viewBox="0 0 50 36" fill="none" xmlns="http://www.w3.org/2000/svg">
<path d="M16.186 24.5H14.674V11.936H19.678C20.782 11.936 21.64 12.242 22.252 12.854C22.876 13.466 23.188 14.348 23.188 15.5C23.188 16.424 22.972 17.186 22.54 17.786C22.12 18.374 21.496 18.764 20.668 18.956L23.548 24.5H21.838L19.12 19.1H16.186V24.5ZM19.678 17.804C20.278 17.804 20.74 17.648 21.064 17.336C21.4 17.024 21.568 16.58 21.568 16.004V15.068C21.568 14.492 21.4 14.048 21.064 13.736C20.74 13.424 20.278 13.268 19.678 13.268H16.186V17.804H19.678ZM27.3987 11.936V19.712C27.3987 20.912 27.6207 21.824 28.0647 22.448C28.5087 23.06 29.2887 23.366 30.4047 23.366C31.5207 23.366 32.3007 23.06 32.7447 22.448C33.1887 21.824 33.4107 20.912 33.4107 19.712V11.936H34.9227V19.352C34.9227 20.264 34.8387 21.056 34.6707 21.728C34.5147 22.4 34.2567 22.958 33.8967 23.402C33.5367 23.846 33.0627 24.176 32.4747 24.392C31.8987 24.608 31.1907 24.716 30.3507 24.716C29.5107 24.716 28.8027 24.608 28.2267 24.392C27.6627 24.176 27.2067 23.846 26.8587 23.402C26.5107 22.958 26.2587 22.4 26.1027 21.728C25.9587 21.056 25.8867 20.264 25.8867 19.352V11.936H27.3987Z" fill="white"/>
<rect x="0.5" y="0.5" width="49" height="35" stroke="white"/>
</svg>
