<svg width="25" height="25" viewBox="0 0 25 25" fill="none" xmlns="http://www.w3.org/2000/svg">
<path d="M12.5 6.63265C11.3395 6.63265 10.2052 6.97677 9.24028 7.62148C8.2754 8.26619 7.52336 9.18255 7.07928 10.2547C6.63519 11.3268 6.519 12.5065 6.74539 13.6447C6.97179 14.7828 7.5306 15.8283 8.35116 16.6488C9.17172 17.4694 10.2172 18.0282 11.3553 18.2546C12.4935 18.481 13.6732 18.3648 14.7453 17.9207C15.8175 17.4766 16.7338 16.7246 17.3785 15.7597C18.0232 14.7948 18.3673 13.6605 18.3673 12.5C18.3656 10.9444 17.7469 9.45306 16.6469 8.3531C15.5469 7.25314 14.0556 6.63441 12.5 6.63265ZM12.5 16.8367C11.6423 16.8367 10.8038 16.5824 10.0906 16.1059C9.37747 15.6293 8.82162 14.952 8.49338 14.1596C8.16514 13.3672 8.07926 12.4952 8.24659 11.6539C8.41393 10.8127 8.82696 10.04 9.43346 9.43346C10.04 8.82696 10.8127 8.41393 11.6539 8.24659C12.4952 8.07926 13.3672 8.16514 14.1596 8.49338C14.952 8.82162 15.6293 9.37747 16.1059 10.0906C16.5824 10.8038 16.8367 11.6423 16.8367 12.5C16.8354 13.6498 16.3781 14.7521 15.5651 15.5651C14.7521 16.3781 13.6498 16.8354 12.5 16.8367ZM18.1122 0H6.88775C5.06165 0.00209304 3.31094 0.728437 2.01969 2.01969C0.728437 3.31094 0.00209304 5.06165 0 6.88775V18.1122C0.00209304 19.9383 0.728437 21.6891 2.01969 22.9803C3.31094 24.2716 5.06165 24.9979 6.88775 25H18.1122C19.9383 24.9979 21.6891 24.2716 22.9803 22.9803C24.2716 21.6891 24.9979 19.9383 25 18.1122V6.88775C24.9979 5.06165 24.2716 3.31094 22.9803 2.01969C21.6891 0.728437 19.9383 0.00209304 18.1122 0ZM23.4694 18.1122C23.4678 19.5326 22.9029 20.8942 21.8986 21.8986C20.8942 22.9029 19.5326 23.4678 18.1122 23.4694H6.88775C5.46744 23.4678 4.10575 22.9029 3.10144 21.8986C2.09712 20.8942 1.5322 19.5326 1.53061 18.1122V6.88775C1.5322 5.46744 2.09712 4.10575 3.10144 3.10144C4.10575 2.09712 5.46744 1.5322 6.88775 1.53061H18.1122C19.5326 1.5322 20.8942 2.09712 21.8986 3.10144C22.9029 4.10575 23.4678 5.46744 23.4694 6.88775V18.1122ZM20.4082 5.86735C20.4082 6.11962 20.3334 6.36623 20.1932 6.57598C20.053 6.78574 19.8538 6.94922 19.6208 7.04576C19.3877 7.1423 19.1312 7.16756 18.8838 7.11835C18.6364 7.06913 18.4091 6.94765 18.2307 6.76927C18.0523 6.59089 17.9309 6.36361 17.8817 6.11619C17.8324 5.86876 17.8577 5.6123 17.9542 5.37923C18.0508 5.14616 18.2143 4.94695 18.424 4.8068C18.6338 4.66664 18.8804 4.59184 19.1327 4.59184C19.4708 4.59224 19.795 4.72676 20.0341 4.96587C20.2732 5.20499 20.4078 5.52918 20.4082 5.86735Z" fill="white"/>
</svg>
