<svg width="30" height="30" viewBox="0 0 30 30" fill="none" xmlns="http://www.w3.org/2000/svg">
<path fill-rule="evenodd" clip-rule="evenodd" d="M14.1956 0.164731C13.2523 0.566836 1.55099 6.78249 1.51177 6.90238C1.47895 7.00273 4.27878 7.02833 15.288 7.02833C23.2209 7.02833 29.1054 6.99044 29.1054 6.93926C29.1054 6.89029 26.1897 5.31875 22.6261 3.44686L16.1469 0.0434237L15.3964 0.00816033C14.8232 -0.0188415 14.5395 0.018135 14.1956 0.164731ZM1.29483 8.49821C0.896964 8.83533 0.870947 9.33869 1.23258 9.70281L1.47814 9.95016H15.2463H29.0144L29.26 9.70281C29.5017 9.45949 29.5771 9.0458 29.4435 8.69528C29.2636 8.22315 29.7042 8.23736 15.2088 8.23736H1.60263L1.29483 8.49821ZM2.57406 11.3518C2.38674 11.5046 2.33781 11.642 2.33781 12.0156C2.33781 12.5746 2.61479 12.872 3.13543 12.872H3.46064L3.42192 14.5596C3.40061 15.4878 3.34027 17.0407 3.28783 18.0104C3.2354 18.9801 3.16305 20.8164 3.12703 22.0909C3.04627 24.951 2.97523 24.8112 4.50853 24.8112C5.45335 24.8112 5.51859 24.7975 5.71042 24.5593C5.93857 24.2761 5.93677 24.1088 5.63447 17.6074C5.55582 15.9173 5.49118 14.1603 5.49067 13.7032L5.48987 12.872H5.8401C6.33773 12.872 6.5906 12.5848 6.5906 12.0195C6.5906 11.6869 6.53366 11.5167 6.37155 11.3646C6.16932 11.1749 6.02493 11.1592 4.48141 11.1592C2.98513 11.1592 2.7856 11.1793 2.57406 11.3518ZM7.95499 11.3681C7.74395 11.5351 7.69132 11.6625 7.69132 12.0053C7.69132 12.5334 7.99682 12.872 8.47323 12.872C8.86539 12.872 8.85418 12.2885 8.59261 19.0884C8.48344 21.9256 8.4216 24.3188 8.45512 24.4068C8.56749 24.7016 9.05241 24.8616 9.83302 24.8616C11.099 24.8616 11.3245 24.6311 11.2395 23.4243C11.1989 22.847 11.0188 17.9555 10.8751 13.5269L10.8555 12.9224L11.222 12.8912C11.9382 12.8305 12.2604 11.9219 11.7485 11.4065C11.5077 11.164 11.4709 11.1592 9.86074 11.1592C8.35095 11.1592 8.19735 11.176 7.95499 11.3681ZM13.2811 11.3518C13.0938 11.5046 13.0448 11.642 13.0448 12.0156C13.0448 12.5841 13.3219 12.872 13.8694 12.872H14.2214L14.1603 13.7536C14.1266 14.2385 14.0228 16.8248 13.9295 19.501L13.7598 24.3668L13.9771 24.5857C14.1485 24.7581 14.3432 24.813 14.8948 24.8445C15.8417 24.8983 16.2627 24.8063 16.4605 24.5025C16.6098 24.2731 16.6096 23.8964 16.4585 19.6963C16.3683 17.1898 16.2664 14.6289 16.2321 14.0055L16.1697 12.872H16.5335C17.0471 12.872 17.2976 12.5911 17.2976 12.0156C17.2976 11.6965 17.2383 11.5025 17.0975 11.3607C16.9132 11.1751 16.764 11.1592 15.2073 11.1592C13.6925 11.1592 13.4928 11.1791 13.2811 11.3518ZM18.644 11.4065C18.1138 11.9403 18.4548 12.872 19.1803 12.872H19.4991L19.496 13.6528C19.4942 14.0822 19.4085 16.6288 19.3054 19.3116C19.1765 22.6695 19.1497 24.2595 19.2196 24.4138C19.2753 24.5371 19.4307 24.6882 19.5648 24.7498C19.8803 24.8944 21.2192 24.8944 21.5347 24.7498C22.0275 24.5237 22.0243 24.6142 21.7568 18.4638C21.7279 17.7988 21.674 16.2687 21.6371 15.0634L21.5699 12.872H21.9179C22.6447 12.872 22.9862 11.9408 22.4555 11.4065C22.2145 11.1638 22.179 11.1592 20.5497 11.1592C18.9205 11.1592 18.885 11.1638 18.644 11.4065ZM24.002 11.3607C23.8558 11.5079 23.8019 11.6965 23.8019 12.0602C23.8019 12.6414 24.0251 12.872 24.5875 12.872H24.9283L24.8664 13.9551C24.8324 14.5507 24.73 17.1386 24.6388 19.7057L24.4731 24.3733L24.6907 24.5922C24.8726 24.7755 25.0473 24.8171 25.76 24.8469C26.7519 24.8885 27.176 24.7575 27.27 24.3808C27.3302 24.1391 27.07 15.7664 26.9412 13.804L26.8801 12.872H27.22C27.8852 12.872 28.2201 12.3705 28.001 11.7025C27.9392 11.5136 27.805 11.3142 27.703 11.2591C27.601 11.2042 26.7715 11.1592 25.8598 11.1592C24.3355 11.1592 24.186 11.1754 24.002 11.3607ZM2.72076 25.9393C2.26146 26.0293 1.80696 26.7496 1.95856 27.1474C1.99989 27.2557 4.39136 27.2797 15.1502 27.2797C28.2443 27.2797 28.2916 27.279 28.3555 27.0763C28.4637 26.7329 28.1035 26.1377 27.7044 26.0007C27.4401 25.91 24.3603 25.8824 15.1462 25.8886C8.4318 25.8929 2.84034 25.9158 2.72076 25.9393ZM0.522319 28.3865C-0.0223384 28.6092 -0.17774 29.3403 0.231928 29.7527L0.477489 30H14.9961H29.5147L29.7603 29.7527C30.0784 29.4325 30.08 28.9897 29.7645 28.6203L29.5229 28.3376L15.1299 28.3182C7.14626 28.3076 0.641297 28.338 0.522319 28.3865Z" fill="white"/>
</svg>
