<svg width="50" height="36" viewBox="0 0 50 36" fill="none" xmlns="http://www.w3.org/2000/svg">
<path d="M16.096 11.936V19.712C16.096 20.912 16.318 21.824 16.762 22.448C17.206 23.06 17.986 23.366 19.102 23.366C20.218 23.366 20.998 23.06 21.442 22.448C21.886 21.824 22.108 20.912 22.108 19.712V11.936H23.62V19.352C23.62 20.264 23.536 21.056 23.368 21.728C23.212 22.4 22.954 22.958 22.594 23.402C22.234 23.846 21.76 24.176 21.172 24.392C20.596 24.608 19.888 24.716 19.048 24.716C18.208 24.716 17.5 24.608 16.924 24.392C16.36 24.176 15.904 23.846 15.556 23.402C15.208 22.958 14.956 22.4 14.8 21.728C14.656 21.056 14.584 20.264 14.584 19.352V11.936H16.096ZM34.5107 24.5L33.2507 20.792H28.1747L26.9147 24.5H25.3847L29.7767 11.936H31.7027L36.0947 24.5H34.5107ZM30.7487 13.34H30.6587L28.5347 19.46H32.8727L30.7487 13.34Z" fill="white"/>
<rect x="0.5" y="0.5" width="49" height="35" stroke="white"/>
</svg>
